<?xml version="1.0" encoding="utf-8"?>
<!-- Generator: Adobe Illustrator 24.2.1, SVG Export Plug-In . SVG Version: 6.00 Build 0)  -->
<svg version="1.1" id="Layer_2" xmlns="http://www.w3.org/2000/svg" xmlns:xlink="http://www.w3.org/1999/xlink" x="0px" y="0px"
	 viewBox="0 0 100 82.5" style="enable-background:new 0 0 100 82.5;" xml:space="preserve">
<style type="text/css">
	.st0{fill:#FE4164;}
	.st1{fill:#999999;}
</style>
<path class="st0" d="M52,62.5c-6.8,0-12.4-5.6-12.4-12.4c0-1.5,0.3-2.9,0.8-4.3c0.5-1.4,2.1-2.1,3.4-1.6c1.4,0.5,2.1,2.1,1.6,3.4
	c-0.3,0.8-0.4,1.6-0.4,2.4c0,3.9,3.1,7,7,7s7-3.1,7-7c0-0.8-0.1-1.6-0.4-2.4c-0.5-1.4,0.2-2.9,1.6-3.4c1.4-0.5,2.9,0.2,3.4,1.6
	c0.5,1.4,0.8,2.8,0.8,4.3C64.3,57,58.8,62.5,52,62.5z"/>
<path class="st1" d="M90.6,15l-9.3,21.9L81,37.5l-8.4,19.7c-0.4,1-1.4,1.6-2.5,1.6c-0.3,0-0.7-0.1-1-0.2c-1.4-0.6-2-2.1-1.4-3.5
	l8.1-19l2.9-6.8l7-16.4c0.6-1.3,2.2-2,3.5-1.4C90.6,12,91.2,13.6,90.6,15z"/>
<g>
	<path d="M52,82.5c-17.9,0-32.4-14.5-32.4-32.4c0-1.2,0.1-2.4,0.2-3.6c0.2-1.5,1.4-2.5,3-2.4c1.5,0.2,2.5,1.5,2.4,3
		c-0.1,1-0.2,2-0.2,3c0,14.9,12.1,27,27,27c13.2,0,24.4-9.4,26.6-22.4c0.3-1.5,1.7-2.4,3.1-2.2c1.5,0.3,2.4,1.6,2.2,3.1
		C81.2,71.2,67.8,82.5,52,82.5z"/>
	<path d="M12.2,38.8c-1.1,0-2-0.6-2.5-1.6L0.2,14.9c-0.6-1.4,0.1-2.9,1.4-3.5c1.3-0.6,2.9,0,3.5,1.4l7,16.4l7-16.4
		c0.6-1.4,2.2-2,3.5-1.4c1.4,0.6,2,2.2,1.4,3.5l-9.5,22.2C14.2,38.1,13.2,38.8,12.2,38.8z"/>
	<path d="M31.1,5.4L31.1,5.4c-1.5,0-2.7-1.2-2.7-2.7v0c0-1.5,1.2-2.7,2.7-2.7h0c1.5,0,2.7,1.2,2.7,2.7v0C33.8,4.2,32.6,5.4,31.1,5.4
		z M33.8,36.1V13.9c0-1.5-1.2-2.7-2.7-2.7s-2.7,1.2-2.7,2.7v22.2c0,1.5,1.2,2.7,2.7,2.7S33.8,37.6,33.8,36.1z"/>
	<path d="M62.6,20.5v15.6c0,1.5-1.2,2.7-2.7,2.7c-1.5,0-2.7-1.2-2.7-2.7V22.4c0-1.9-0.5-3.4-1.5-4.4c-1-1.1-2.2-1.6-3.8-1.6
		s-2.8,0.5-3.8,1.6c-1,1-1.5,2.5-1.5,4.4v13.7c0,1.5-1.2,2.7-2.7,2.7c-1.5,0-2.7-1.2-2.7-2.7V13.9c0-1.5,1.2-2.7,2.7-2.7
		c1.4,0,2.7,1.2,2.7,2.7v0.3h0.1c1.8-2.2,4.1-3.3,7-3.3c1.5,0,2.9,0.4,4.3,1.2c0.6,0.3,1.2,0.8,1.8,1.2
		C61.6,14.9,62.5,17.3,62.6,20.5z"/>
	<path d="M76.9,25l-1.2,2.9L74,31.8L66.8,15c-0.6-1.4,0.1-2.9,1.4-3.5s2.9,0.1,3.5,1.4L76.9,25z"/>
	<path d="M97.3,38.8c-1.5,0-2.7-1.2-2.7-2.7V2.7c0-1.5,1.2-2.7,2.7-2.7s2.7,1.2,2.7,2.7v33.4C100,37.6,98.8,38.8,97.3,38.8z"/>
</g>
</svg>